<svg xmlns="http://www.w3.org/2000/svg" viewBox="0 0 640 700" fill="none" role="img" aria-labelledby="heroArtTitle">
  <title id="heroArtTitle">Open book with genre bars under a teal arch, botanical leaves, and gold stars</title>
  <defs>
    <linearGradient id="archGrad" x1="190" y1="6" x2="450" y2="515" gradientUnits="userSpaceOnUse">
      <stop stop-color="#274f52"/>
      <stop offset="0.55" stop-color="#204446"/>
      <stop offset="1" stop-color="#193638"/>
    </linearGradient>
    <linearGradient id="coverGrad" x1="80" y1="520" x2="560" y2="640" gradientUnits="userSpaceOnUse">
      <stop stop-color="#2a5558"/>
      <stop offset="1" stop-color="#1e4346"/>
    </linearGradient>
    <linearGradient id="pageTop" x1="80" y1="480" x2="560" y2="560" gradientUnits="userSpaceOnUse">
      <stop stop-color="#fbf6ec"/>
      <stop offset="0.5" stop-color="#f2e6d2"/>
      <stop offset="1" stop-color="#e8d7b8"/>
    </linearGradient>
    <linearGradient id="pageMid" x1="100" y1="500" x2="540" y2="600" gradientUnits="userSpaceOnUse">
      <stop stop-color="#f5ecde"/>
      <stop offset="0.5" stop-color="#ead9bd"/>
      <stop offset="1" stop-color="#dfc9a5"/>
    </linearGradient>
    <linearGradient id="spineGrad" x1="300" y1="470" x2="340" y2="610" gradientUnits="userSpaceOnUse">
      <stop stop-color="#c4aa82"/>
      <stop offset="0.45" stop-color="#e4d0b0"/>
      <stop offset="1" stop-color="#b6976f"/>
    </linearGradient>
    <filter id="archShadow" x="-15%" y="-10%" width="130%" height="130%">
      <feDropShadow dx="0" dy="10" stdDeviation="8" flood-color="#102b43" flood-opacity="0.16"/>
    </filter>
    <filter id="bookShadow" x="-20%" y="-15%" width="140%" height="140%">
      <feDropShadow dx="0" dy="10" stdDeviation="10" flood-color="#102b43" flood-opacity="0.16"/>
    </filter>
    <filter id="barShadow" x="-8%" y="-30%" width="116%" height="160%">
      <feDropShadow dx="0" dy="3" stdDeviation="3.5" flood-color="#102b43" flood-opacity="0.14"/>
    </filter>
  </defs>

  <!-- Soft grounding shapes -->
  <ellipse cx="470" cy="560" rx="180" ry="118" fill="#9db2a2" opacity="0.34"/>
  <ellipse cx="500" cy="600" rx="130" ry="86" fill="#9db2a2" opacity="0.22"/>
  <ellipse cx="150" cy="575" rx="120" ry="78" fill="#9db2a2" opacity="0.2"/>
  <ellipse cx="320" cy="640" rx="210" ry="48" fill="#9db2a2" opacity="0.14"/>

  <!-- Large dark teal arch, framing the genre cards -->
  <path d="M158 515 V116 C158 38 226 6 320 6 C414 6 482 38 482 116 V515 Z"
        fill="url(#archGrad)" filter="url(#archShadow)"/>
  <path d="M180 507 V128 C180 60 238 30 320 30 C402 30 460 60 460 128 V507 Z"
        fill="#132c2e" opacity="0.32"/>

  <!-- Stars inside arch -->
  <g fill="#d5a83f">
    <path transform="translate(278 70) scale(0.48)" d="M12 0 L14.5 8.5 L23 9 L16.5 14.5 L18.5 23 L12 18.5 L5.5 23 L7.5 14.5 L1 9 L9.5 8.5 Z"/>
    <path transform="translate(360 108) scale(0.3)" d="M12 0 L14.5 8.5 L23 9 L16.5 14.5 L18.5 23 L12 18.5 L5.5 23 L7.5 14.5 L1 9 L9.5 8.5 Z"/>
    <path transform="translate(245 140) scale(0.24)" d="M12 0 L14.5 8.5 L23 9 L16.5 14.5 L18.5 23 L12 18.5 L5.5 23 L7.5 14.5 L1 9 L9.5 8.5 Z"/>
    <circle cx="340" cy="160" r="1.6"/>
    <circle cx="280" cy="190" r="1.3"/>
    <circle cx="370" cy="195" r="1.1" fill="#f2e6d2"/>
    <circle cx="300" cy="220" r="1"/>
    <circle cx="350" cy="230" r="1.2"/>
  </g>

  <!-- Botanical leaves - left, anchored around the book -->
  <g stroke-linecap="round" stroke-linejoin="round">
    <path d="M116 560 C78 480 100 390 152 330" stroke="#d5a83f" stroke-width="2.4" fill="none" opacity="0.9"/>
    <path d="M152 330 C114 354 100 400 114 440 C134 404 146 362 152 330 Z" fill="#d5a83f" opacity="0.6" stroke="#d5a83f" stroke-width="1"/>
    <path d="M136 372 C96 400 90 452 112 488 C132 454 140 406 136 372 Z" fill="#28614e" opacity="0.4" stroke="#28614e" stroke-width="1"/>
    <path d="M122 424 C88 458 98 508 132 536 C144 500 140 458 122 424 Z" fill="#d5a83f" opacity="0.46" stroke="#d5a83f" stroke-width="1"/>
    <path d="M84 550 C60 498 78 446 120 412" stroke="#9db2a2" stroke-width="2" fill="none" opacity="0.85"/>
    <path d="M120 412 C92 438 84 484 100 522 C120 490 124 446 120 412 Z" fill="#9db2a2" opacity="0.5" stroke="#9db2a2" stroke-width="1"/>
    <path d="M98 466 C68 498 78 550 114 576 C124 542 118 498 98 466 Z" fill="#28614e" opacity="0.3" stroke="#28614e" stroke-width="1"/>
    <path d="M134 528 C112 496 124 452 156 428" stroke="#d5a83f" stroke-width="1.5" fill="none" opacity="0.7"/>
    <path d="M156 428 C134 450 130 488 144 516 C154 490 158 454 156 428 Z" fill="#d5a83f" opacity="0.36" stroke="#d5a83f" stroke-width="0.9"/>
  </g>

  <!-- Botanical leaves - right, anchored around the book -->
  <g stroke-linecap="round" stroke-linejoin="round">
    <path d="M524 552 C574 472 560 382 504 322" stroke="#d5a83f" stroke-width="2.4" fill="none" opacity="0.9"/>
    <path d="M504 322 C546 348 562 396 544 438 C524 402 512 358 504 322 Z" fill="#d5a83f" opacity="0.6" stroke="#d5a83f" stroke-width="1"/>
    <path d="M520 366 C562 396 568 448 542 484 C524 450 518 402 520 366 Z" fill="#28614e" opacity="0.4" stroke="#28614e" stroke-width="1"/>
    <path d="M534 418 C572 454 562 506 526 534 C516 498 520 452 534 418 Z" fill="#d5a83f" opacity="0.46" stroke="#d5a83f" stroke-width="1"/>
    <path d="M560 542 C592 490 574 438 528 404" stroke="#9db2a2" stroke-width="2" fill="none" opacity="0.85"/>
    <path d="M528 404 C558 430 568 476 550 514 C530 482 524 438 528 404 Z" fill="#9db2a2" opacity="0.5" stroke="#9db2a2" stroke-width="1"/>
    <path d="M546 460 C578 492 566 544 528 568 C520 534 528 490 546 460 Z" fill="#28614e" opacity="0.3" stroke="#28614e" stroke-width="1"/>
    <path d="M512 522 C536 490 526 446 494 424" stroke="#d5a83f" stroke-width="1.5" fill="none" opacity="0.7"/>
    <path d="M494 424 C518 446 524 484 510 512 C498 486 494 450 494 424 Z" fill="#d5a83f" opacity="0.36" stroke="#d5a83f" stroke-width="0.9"/>
  </g>

  <!-- Realistic open book -->
  <g filter="url(#bookShadow)">
    <!-- Hard cover (dark teal) -->
    <path d="M58 528
             C130 488 210 470 320 484
             C430 470 510 488 582 528
             C590 568 530 616 320 634
             C110 616 50 568 58 528 Z"
          fill="url(#coverGrad)"/>
    <path d="M72 526 C140 492 210 478 320 490 C430 478 500 492 568 526 C574 556 520 594 320 608 C120 594 66 556 72 526 Z"
          fill="#1a3d40" opacity="0.35"/>

    <!-- Deep page layers left -->
    <path d="M78 520 C145 478 215 462 316 482 L316 598 C215 576 145 586 78 620 Z" fill="#d7c19a"/>
    <path d="M90 512 C152 474 220 460 316 478 L316 584 C220 564 152 574 90 604 Z" fill="#e2ceb0"/>
    <path d="M104 502 C162 468 226 456 316 472 L316 566 C226 548 162 556 104 584 Z" fill="url(#pageMid)"/>
    <path d="M120 492 C174 464 232 454 316 466 L316 546 C232 530 174 536 120 562 Z" fill="#f3e8d6"/>
    <path d="M138 482 C188 460 240 452 316 460 L316 524 C240 512 188 516 138 538 Z" fill="url(#pageTop)"/>
    <path d="M156 474 C200 456 248 450 316 456 L316 504 C248 494 200 496 156 516 Z" fill="#fbf6ec"/>

    <!-- Deep page layers right -->
    <path d="M562 520 C495 478 425 462 324 482 L324 598 C425 576 495 586 562 620 Z" fill="#d7c19a"/>
    <path d="M550 512 C488 474 420 460 324 478 L324 584 C420 564 488 574 550 604 Z" fill="#e2ceb0"/>
    <path d="M536 502 C478 468 414 456 324 472 L324 566 C414 548 478 556 536 584 Z" fill="url(#pageMid)"/>
    <path d="M520 492 C466 464 408 454 324 466 L324 546 C408 530 466 536 520 562 Z" fill="#f3e8d6"/>
    <path d="M502 482 C452 460 400 452 324 460 L324 524 C400 512 452 516 502 538 Z" fill="url(#pageTop)"/>
    <path d="M484 474 C440 456 392 450 324 456 L324 504 C392 494 440 496 484 516 Z" fill="#fbf6ec"/>

    <!-- Center gutter / spine -->
    <path d="M304 462 C314 484 318 540 320 602 C322 540 326 484 336 462 C326 456 314 456 304 462 Z"
          fill="url(#spineGrad)"/>
    <path d="M318 468 C319 510 320 560 320 602" stroke="#b6976f" stroke-width="1.6" opacity="0.55"/>

    <!-- Page curve detail -->
    <path d="M150 498 C205 474 260 468 308 480" stroke="#d2bb96" stroke-width="1.15" opacity="0.7"/>
    <path d="M162 520 C212 498 266 494 310 504" stroke="#d2bb96" stroke-width="1" opacity="0.5"/>
    <path d="M174 542 C220 524 270 520 312 528" stroke="#d2bb96" stroke-width="1" opacity="0.38"/>
    <path d="M490 498 C435 474 380 468 332 480" stroke="#d2bb96" stroke-width="1.15" opacity="0.7"/>
    <path d="M478 520 C428 498 374 494 330 504" stroke="#d2bb96" stroke-width="1" opacity="0.5"/>
    <path d="M466 542 C420 524 370 520 328 528" stroke="#d2bb96" stroke-width="1" opacity="0.38"/>

    <!-- Soft inner spine shadows -->
    <path d="M278 470 C294 496 300 550 302 596 C286 574 274 520 278 470 Z" fill="#c4aa82" opacity="0.2"/>
    <path d="M362 470 C346 496 340 550 338 596 C354 574 366 520 362 470 Z" fill="#c4aa82" opacity="0.2"/>
  </g>

  <!-- Genre cards: uniform width/height, even spacing, softer shadows, aligned pills -->
  <g font-family="Inter, system-ui, sans-serif" font-size="16" font-weight="700" letter-spacing="2.6" fill="#ffffff">
    <!-- LEXO -->
    <g filter="url(#barShadow)">
      <rect x="142" y="150" width="356" height="56" rx="18" fill="#28614e"/>
      <rect x="474" y="160" width="26" height="36" rx="12" fill="#ffffff"/>
      <g transform="translate(174 164)" stroke="#ffffff" stroke-width="1.75" fill="none" stroke-linecap="round" stroke-linejoin="round">
        <path d="M12 4v16"/>
        <path d="M12 4c-2.2-1.4-5.5-1.6-8 0v14c2.5-1.6 5.8-1.4 8 0"/>
        <path d="M12 4c2.2-1.4 5.5-1.6 8 0v14c-2.5-1.6-5.8-1.4-8 0"/>
      </g>
      <text x="222" y="185">LEXO</text>
    </g>

    <!-- MYSTERY -->
    <g filter="url(#barShadow)">
      <rect x="142" y="226" width="356" height="56" rx="18" fill="#5f7a68"/>
      <rect x="474" y="236" width="26" height="36" rx="12" fill="#ffffff"/>
      <g transform="translate(174 240)" stroke="#ffffff" stroke-width="1.75" fill="none" stroke-linecap="round">
        <circle cx="9" cy="9" r="6.4"/>
        <path d="M14 14 L20 20"/>
      </g>
      <text x="222" y="261">MYSTERY</text>
    </g>

    <!-- ROMANCE -->
    <g filter="url(#barShadow)">
      <rect x="142" y="302" width="356" height="56" rx="18" fill="#376f72"/>
      <rect x="474" y="312" width="26" height="36" rx="12" fill="#ffffff"/>
      <g transform="translate(174 315)" stroke="#ffffff" stroke-width="1.7" fill="none" stroke-linecap="round" stroke-linejoin="round">
        <path d="M12 21 C12 21 2.2 13.4 2.2 7.8 C2.2 4.5 4.8 2.4 7.8 2.4 C10 2.4 11.4 3.8 12 5.3 C12.6 3.8 14 2.4 16.2 2.4 C19.2 2.4 21.8 4.5 21.8 7.8 C21.8 13.4 12 21 12 21 Z"/>
      </g>
      <text x="222" y="337">ROMANCE</text>
    </g>

    <!-- FANTASY -->
    <g filter="url(#barShadow)">
      <rect x="142" y="378" width="356" height="56" rx="18" fill="#d5a83f"/>
      <rect x="474" y="388" width="26" height="36" rx="12" fill="#ffffff"/>
      <g transform="translate(174 391)" stroke="#ffffff" stroke-width="1.7" fill="none" stroke-linecap="round" stroke-linejoin="round">
        <path d="M5 19 L15 9"/>
        <path d="M16 4v4"/>
        <path d="M14 6h4"/>
        <path d="M19 11v2"/>
        <path d="M18 12h2"/>
      </g>
      <text x="222" y="413">FANTASY</text>
    </g>

    <!-- THRILLER -->
    <g filter="url(#barShadow)">
      <rect x="142" y="454" width="356" height="56" rx="18" fill="#102b43"/>
      <rect x="474" y="464" width="26" height="36" rx="12" fill="#ffffff"/>
      <g transform="translate(174 461)" stroke="#ffffff" stroke-width="1.45" fill="none" stroke-linecap="round">
        <path d="M12 2.8c-3.1 0-5.4 2.2-5.4 5.2 0 1.4.5 2.6 1.4 3.5"/>
        <path d="M12 2.8c3.1 0 5.4 2.2 5.4 5.2 0 1.4-.5 2.6-1.4 3.5"/>
        <path d="M8 11.5c-1.6 1-2.6 2.6-2.6 4.5 0 3.2 2.6 5.7 6.6 5.7s6.6-2.5 6.6-5.7c0-1.9-1-3.5-2.6-4.5"/>
        <path d="M12 6.2c-1.5 0-2.6 1.1-2.6 2.5"/>
        <path d="M12 6.2c1.5 0 2.6 1.1 2.6 2.5"/>
        <path d="M9.6 12.8c-1 .65-1.6 1.7-1.6 2.9 0 2 1.6 3.6 4 3.6s4-1.6 4-3.6c0-1.2-.6-2.25-1.6-2.9"/>
        <path d="M12 10.2c-.85 0-1.5.65-1.5 1.45"/>
        <path d="M12 10.2c.85 0 1.5.65 1.5 1.45"/>
      </g>
      <text x="222" y="489">THRILLER</text>
    </g>
  </g>

  <!-- Extra gold sparkles around composition -->
  <g fill="#d5a83f">
    <path transform="translate(460 48) scale(0.78)" d="M12 0 L14.5 8.5 L23 9 L16.5 14.5 L18.5 23 L12 18.5 L5.5 23 L7.5 14.5 L1 9 L9.5 8.5 Z"/>
    <path transform="translate(520 96) scale(0.42)" d="M12 0 L14.5 8.5 L23 9 L16.5 14.5 L18.5 23 L12 18.5 L5.5 23 L7.5 14.5 L1 9 L9.5 8.5 Z"/>
    <path transform="translate(98 96) scale(0.38)" d="M12 0 L14.5 8.5 L23 9 L16.5 14.5 L18.5 23 L12 18.5 L5.5 23 L7.5 14.5 L1 9 L9.5 8.5 Z"/>
    <path transform="translate(560 220) scale(0.34)" d="M12 0 L14.5 8.5 L23 9 L16.5 14.5 L18.5 23 L12 18.5 L5.5 23 L7.5 14.5 L1 9 L9.5 8.5 Z"/>
    <path transform="translate(70 230) scale(0.3)" d="M12 0 L14.5 8.5 L23 9 L16.5 14.5 L18.5 23 L12 18.5 L5.5 23 L7.5 14.5 L1 9 L9.5 8.5 Z"/>
    <path transform="translate(500 300) scale(0.26)" d="M12 0 L14.5 8.5 L23 9 L16.5 14.5 L18.5 23 L12 18.5 L5.5 23 L7.5 14.5 L1 9 L9.5 8.5 Z"/>
    <path transform="translate(575 360) scale(0.28)" d="M12 0 L14.5 8.5 L23 9 L16.5 14.5 L18.5 23 L12 18.5 L5.5 23 L7.5 14.5 L1 9 L9.5 8.5 Z"/>
    <path transform="translate(55 360) scale(0.24)" d="M12 0 L14.5 8.5 L23 9 L16.5 14.5 L18.5 23 L12 18.5 L5.5 23 L7.5 14.5 L1 9 L9.5 8.5 Z"/>
    <path transform="translate(530 430) scale(0.22)" d="M12 0 L14.5 8.5 L23 9 L16.5 14.5 L18.5 23 L12 18.5 L5.5 23 L7.5 14.5 L1 9 L9.5 8.5 Z"/>
    <path transform="translate(488 70) scale(0.2)" d="M12 0 L14.5 8.5 L23 9 L16.5 14.5 L18.5 23 L12 18.5 L5.5 23 L7.5 14.5 L1 9 L9.5 8.5 Z"/>
    <circle cx="490" cy="140" r="2.1"/>
    <circle cx="545" cy="170" r="1.5"/>
    <circle cx="95" cy="170" r="1.6"/>
    <circle cx="590" cy="300" r="1.4"/>
    <circle cx="48" cy="300" r="1.3"/>
    <circle cx="575" cy="450" r="1.7"/>
    <circle cx="62" cy="450" r="1.4"/>
    <circle cx="505" cy="55" r="1.2"/>
    <circle cx="130" cy="70" r="1.1"/>
    <circle cx="560" cy="130" r="1"/>
    <circle cx="80" cy="200" r="1.2"/>
    <circle cx="600" cy="400" r="1.1"/>
    <path transform="translate(320 -6) scale(0.5)" d="M12 0 L14.5 8.5 L23 9 L16.5 14.5 L18.5 23 L12 18.5 L5.5 23 L7.5 14.5 L1 9 L9.5 8.5 Z"/>
    <path transform="translate(190 490) scale(0.24)" d="M12 0 L14.5 8.5 L23 9 L16.5 14.5 L18.5 23 L12 18.5 L5.5 23 L7.5 14.5 L1 9 L9.5 8.5 Z"/>
    <path transform="translate(450 495) scale(0.22)" d="M12 0 L14.5 8.5 L23 9 L16.5 14.5 L18.5 23 L12 18.5 L5.5 23 L7.5 14.5 L1 9 L9.5 8.5 Z"/>
    <circle cx="205" cy="615" r="1.6"/>
    <circle cx="435" cy="622" r="1.4"/>
    <circle cx="320" cy="60" r="1.3" fill="#f2e6d2"/>
  </g>

  <!-- Small leaf sprigs tucked behind the book base -->
  <g stroke-linecap="round" stroke-linejoin="round">
    <path d="M198 546 C176 566 178 596 202 612" stroke="#28614e" stroke-width="1.6" fill="none" opacity="0.5"/>
    <path d="M198 546 C214 562 218 588 206 608 C192 590 190 564 198 546 Z" fill="#28614e" opacity="0.28"/>
    <path d="M442 550 C464 570 462 598 438 614" stroke="#d5a83f" stroke-width="1.6" fill="none" opacity="0.5"/>
    <path d="M442 550 C426 566 422 592 434 610 C448 592 450 566 442 550 Z" fill="#d5a83f" opacity="0.3"/>
  </g>
</svg>
